<?xml version="1.0" encoding="UTF-8"?>
<svg xmlns="http://www.w3.org/2000/svg" xmlns:xlink="http://www.w3.org/1999/xlink" width="2641" height="2641" viewBox="0 0 2641 2641">
<path fill-rule="evenodd" fill="rgb(0%, 0%, 0%)" fill-opacity="1" d="M 1 0 L 2641 0 L 2641 2640 L 1 2640 L 1 0 "/>
<path fill-rule="nonzero" fill="rgb(0%, 0%, 0%)" fill-opacity="1" d="M 1941.46875 1677.03125 L 1958.410156 1555.050781 C 1888.230469 1514.339844 1795.441406 1480.609375 1687.410156 1456.910156 C 1578.078125 1432.929688 1453.398438 1419.351562 1321 1419.351562 C 1188.410156 1419.351562 1063.570312 1432.96875 954.117188 1457.011719 C 846.339844 1480.691406 753.707031 1514.398438 683.597656 1555.078125 L 700.53125 1677.03125 C 732.800781 1645.738281 792.136719 1618.691406 870.8125 1597.929688 C 986.324219 1567.441406 1145.519531 1548.589844 1321 1548.589844 C 1496.480469 1548.589844 1655.671875 1567.441406 1771.191406 1597.929688 C 1849.859375 1618.691406 1909.199219 1645.738281 1941.46875 1677.03125 Z M 1321 413.140625 C 1366.308594 413.140625 1407.328125 431.511719 1437.019531 461.199219 C 1466.71875 490.890625 1485.078125 531.921875 1485.078125 577.230469 C 1485.078125 622.53125 1466.71875 663.558594 1437.019531 693.25 C 1427 703.269531 1415.679688 712.011719 1403.351562 719.179688 C 1404.910156 722.140625 1406.351562 724.910156 1407.46875 726.859375 L 1714.101562 1257.871094 L 1921.488281 1036.691406 C 1910.578125 1024.199219 1901.558594 1010.058594 1894.839844 994.699219 C 1886.050781 974.589844 1881.171875 952.449219 1881.171875 929.261719 C 1881.171875 884.078125 1899.488281 843.160156 1929.101562 813.550781 C 1958.71875 783.929688 1999.628906 765.621094 2044.820312 765.621094 C 2090.011719 765.621094 2130.921875 783.929688 2160.539062 813.550781 C 2190.148438 843.160156 2208.46875 884.078125 2208.46875 929.261719 C 2208.46875 974.449219 2190.148438 1015.359375 2160.539062 1044.980469 C 2133.800781 1071.710938 2097.859375 1089.238281 2057.878906 1092.398438 L 1968.839844 1733.519531 C 1967.839844 1787.941406 1892.5 1834.902344 1771.191406 1866.914062 C 1655.671875 1897.398438 1496.480469 1916.253906 1321 1916.253906 C 1145.519531 1916.253906 986.328125 1897.398438 870.8125 1866.914062 C 749.488281 1834.898438 674.152344 1787.933594 673.160156 1733.511719 L 584.125 1092.398438 C 544.140625 1089.238281 508.199219 1071.710938 481.464844 1044.980469 C 451.847656 1015.359375 433.53125 974.449219 433.53125 929.261719 C 433.53125 884.078125 451.847656 843.160156 481.464844 813.550781 C 511.078125 783.929688 551.988281 765.621094 597.179688 765.621094 C 642.367188 765.621094 683.277344 783.929688 712.894531 813.550781 C 742.511719 843.160156 760.828125 884.078125 760.828125 929.261719 C 760.828125 952.449219 755.949219 974.589844 747.15625 994.699219 C 740.441406 1010.058594 731.414062 1024.199219 720.511719 1036.691406 L 927.902344 1257.871094 L 1238.890625 719.308594 C 1226.460938 712.109375 1215.058594 703.339844 1204.980469 693.25 C 1175.28125 663.558594 1156.921875 622.53125 1156.921875 577.230469 C 1156.921875 531.921875 1175.28125 490.890625 1204.980469 461.199219 C 1234.671875 431.511719 1275.691406 413.140625 1321 413.140625 Z M 1371.050781 733.53125 L 1363.621094 720.660156 L 1363.140625 719.769531 C 1362.828125 719.160156 1362.558594 718.53125 1362.328125 717.898438 C 1359.351562 709.761719 1362.828125 700.511719 1370.691406 696.441406 C 1386.371094 689.898438 1400.480469 680.359375 1412.300781 668.53125 C 1435.671875 645.160156 1450.121094 612.878906 1450.121094 577.230469 C 1450.121094 541.570312 1435.671875 509.289062 1412.300781 485.921875 C 1388.941406 462.558594 1356.660156 448.101562 1321 448.101562 C 1285.339844 448.101562 1253.058594 462.558594 1229.699219 485.921875 C 1206.328125 509.289062 1191.878906 541.570312 1191.878906 577.230469 C 1191.878906 612.878906 1206.328125 645.160156 1229.699219 668.53125 C 1241.519531 680.359375 1255.640625 689.898438 1271.308594 696.441406 C 1279.179688 700.511719 1282.648438 709.761719 1279.671875 717.898438 L 1279.648438 717.960938 L 1279.640625 717.988281 L 1279.628906 718.019531 L 1279.621094 718.050781 L 1279.609375 718.078125 L 1279.601562 718.109375 L 1279.550781 718.21875 L 1279.539062 718.25 L 1279.53125 718.28125 L 1279.519531 718.308594 L 1279.5 718.339844 L 1279.488281 718.371094 L 1279.480469 718.398438 L 1279.46875 718.429688 L 1279.460938 718.460938 L 1279.441406 718.488281 L 1279.429688 718.519531 L 1279.421875 718.550781 L 1279.421875 718.558594 L 1279.410156 718.578125 L 1279.398438 718.609375 L 1279.378906 718.640625 L 1279.371094 718.671875 L 1279.359375 718.699219 L 1279.351562 718.71875 L 1279.328125 718.75 L 1279.320312 718.78125 L 1279.308594 718.808594 L 1279.300781 718.839844 L 1279.28125 718.871094 L 1279.269531 718.898438 L 1279.261719 718.929688 L 1279.25 718.960938 L 1279.238281 718.96875 L 1279.230469 718.988281 L 1279.21875 719.019531 L 1279.210938 719.050781 L 1279.191406 719.078125 L 1279.171875 719.128906 L 1279.148438 719.160156 L 1279.140625 719.191406 L 1279.109375 719.25 L 1279.101562 719.28125 L 1279.089844 719.308594 L 1279.070312 719.339844 L 1279.058594 719.371094 L 1279.050781 719.398438 L 1279.03125 719.429688 L 1279.019531 719.460938 L 1279 719.480469 L 1278.898438 719.691406 L 1278.890625 719.71875 L 1278.878906 719.75 L 1278.859375 719.769531 L 1278.851562 719.789062 L 1278.851562 719.800781 C 1278.71875 720.058594 1278.578125 720.308594 1278.441406 720.550781 L 1278.441406 720.570312 L 1278.429688 720.578125 L 1278.421875 720.589844 L 1278.378906 720.660156 L 1270.949219 733.53125 L 946.347656 1295.691406 C 941.519531 1304.019531 930.847656 1306.859375 922.515625 1302.039062 C 920.890625 1301.089844 919.472656 1299.929688 918.28125 1298.601562 L 683.753906 1048.480469 C 677.15625 1041.46875 677.492188 1030.429688 684.507812 1023.828125 C 684.820312 1023.539062 685.144531 1023.261719 685.46875 1022.988281 C 697.996094 1011.179688 708.171875 996.851562 715.199219 980.769531 C 722.058594 965.078125 725.867188 947.660156 725.867188 929.261719 C 725.867188 893.730469 711.460938 861.550781 688.175781 838.269531 C 664.890625 814.980469 632.714844 800.578125 597.179688 800.578125 C 561.640625 800.578125 529.46875 814.980469 506.183594 838.269531 C 482.898438 861.550781 468.492188 893.730469 468.492188 929.261719 C 468.492188 964.800781 482.898438 996.96875 506.183594 1020.261719 C 529.46875 1043.550781 561.640625 1057.949219 597.179688 1057.949219 C 601.210938 1057.949219 596.945312 1058.03125 598.371094 1058 L 599.101562 1057.988281 C 608 1057.851562 615.445312 1064.410156 616.625 1073.019531 L 616.648438 1073.011719 L 678.4375 1517.949219 C 750.070312 1478.550781 841.652344 1445.960938 946.742188 1422.871094 C 1058.570312 1398.300781 1185.941406 1384.390625 1321 1384.390625 C 1455.871094 1384.390625 1583.070312 1398.261719 1694.789062 1422.769531 C 1800.039062 1445.859375 1891.789062 1478.5 1963.558594 1517.988281 L 2025.351562 1073.011719 C 2026.578125 1064.128906 2034.300781 1057.738281 2043.058594 1057.96875 C 2043.148438 1057.960938 2043.609375 1057.949219 2044.820312 1057.949219 C 2080.359375 1057.949219 2112.53125 1043.550781 2135.820312 1020.261719 C 2159.101562 996.96875 2173.511719 964.800781 2173.511719 929.261719 C 2173.511719 893.730469 2159.101562 861.550781 2135.820312 838.269531 C 2112.53125 814.980469 2080.359375 800.578125 2044.820312 800.578125 C 2009.28125 800.578125 1977.109375 814.980469 1953.820312 838.269531 C 1930.539062 861.550781 1916.128906 893.730469 1916.128906 929.261719 C 1916.128906 947.660156 1919.941406 965.078125 1926.800781 980.78125 C 1933.980469 997.199219 1944.449219 1011.808594 1957.359375 1023.761719 C 1964.410156 1030.289062 1964.839844 1041.289062 1958.308594 1048.351562 L 1958.210938 1048.449219 L 1958.238281 1048.480469 L 1723.441406 1298.890625 C 1716.851562 1305.910156 1705.808594 1306.238281 1698.789062 1299.648438 C 1697.449219 1298.378906 1696.339844 1296.941406 1695.488281 1295.410156 Z M 1762.308594 1631.660156 C 1649.671875 1601.941406 1493.671875 1583.550781 1321 1583.550781 C 1148.328125 1583.550781 992.324219 1601.941406 879.6875 1631.660156 C 866.503906 1635.140625 853.945312 1638.738281 842.0625 1642.445312 C 891.6875 1660.359375 955.105469 1675.535156 1028.308594 1686.917969 C 1120.871094 1701.308594 1229.140625 1709.566406 1345.128906 1709.566406 C 1452.730469 1709.566406 1553.789062 1702.429688 1641.890625 1689.867188 C 1712.03125 1679.863281 1773.910156 1666.460938 1824.25 1650.519531 C 1805.601562 1643.921875 1784.871094 1637.609375 1762.308594 1631.660156 Z M 792.652344 1660.085938 C 738.992188 1682.207031 708.097656 1707.035156 708.097656 1732.421875 C 708.097656 1769.410156 773.671875 1805.207031 879.691406 1833.183594 C 992.328125 1862.90625 1148.328125 1881.292969 1321 1881.292969 C 1493.671875 1881.292969 1649.671875 1862.90625 1762.308594 1833.183594 C 1868.328125 1805.207031 1933.898438 1769.410156 1933.898438 1732.421875 C 1933.898438 1710.964844 1911.828125 1689.90625 1872.589844 1670.542969 C 1814.589844 1692.992188 1737.121094 1711.539062 1646.800781 1724.417969 C 1556.871094 1737.246094 1454.121094 1744.527344 1345.128906 1744.527344 C 1227.910156 1744.527344 1117.769531 1736.070312 1022.980469 1721.335938 C 928.023438 1706.570312 848.519531 1685.429688 792.652344 1660.085938 Z M 1321 943.941406 C 1356.601562 943.941406 1388.421875 963.671875 1411.070312 995.558594 C 1432.5 1025.738281 1445.769531 1067.109375 1445.769531 1112.480469 C 1445.769531 1157.851562 1432.5 1199.210938 1411.070312 1229.398438 C 1388.421875 1261.289062 1356.601562 1281.019531 1321 1281.019531 C 1285.398438 1281.019531 1253.578125 1261.289062 1230.929688 1229.398438 C 1209.5 1199.210938 1196.230469 1157.851562 1196.230469 1112.480469 C 1196.230469 1067.109375 1209.5 1025.738281 1230.929688 995.558594 C 1253.578125 963.671875 1285.398438 943.941406 1321 943.941406 Z M 1382.660156 1015.769531 C 1366.480469 992.988281 1344.648438 978.898438 1321 978.898438 C 1297.351562 978.898438 1275.519531 992.988281 1259.339844 1015.769531 C 1241.949219 1040.25 1231.191406 1074.429688 1231.191406 1112.480469 C 1231.191406 1150.53125 1241.949219 1184.699219 1259.339844 1209.191406 C 1275.519531 1231.96875 1297.351562 1246.058594 1321 1246.058594 C 1344.648438 1246.058594 1366.480469 1231.96875 1382.660156 1209.191406 C 1400.050781 1184.699219 1410.808594 1150.53125 1410.808594 1112.480469 C 1410.808594 1074.429688 1400.050781 1040.25 1382.660156 1015.769531 Z M 2043.839844 1058 C 2043.578125 1058 2042.910156 1057.980469 2043.058594 1057.96875 L 2043.839844 1058 "/>
<path fill-rule="evenodd" fill="rgb(76.951599%, 61.131287%, 12.939453%)" fill-opacity="1" d="M 1345.128906 1744.527344 C 1227.910156 1744.527344 1117.769531 1736.070312 1022.980469 1721.335938 C 928.023438 1706.570312 848.519531 1685.429688 792.652344 1660.085938 C 738.992188 1682.207031 708.097656 1707.035156 708.097656 1732.421875 C 708.097656 1769.410156 773.671875 1805.207031 879.691406 1833.183594 C 992.328125 1862.90625 1148.328125 1881.292969 1321 1881.292969 C 1493.671875 1881.292969 1649.671875 1862.90625 1762.308594 1833.183594 C 1868.328125 1805.207031 1933.898438 1769.410156 1933.898438 1732.421875 C 1933.898438 1710.964844 1911.828125 1689.90625 1872.589844 1670.542969 C 1814.589844 1692.992188 1737.121094 1711.539062 1646.800781 1724.417969 C 1556.871094 1737.246094 1454.121094 1744.527344 1345.128906 1744.527344 "/>
<path fill-rule="evenodd" fill="rgb(95.3125%, 75.193787%, 15.281677%)" fill-opacity="1" d="M 870.8125 1597.929688 C 986.324219 1567.441406 1145.519531 1548.589844 1321 1548.589844 C 1496.480469 1548.589844 1655.671875 1567.441406 1771.191406 1597.929688 C 1849.859375 1618.691406 1909.199219 1645.738281 1941.46875 1677.03125 L 1958.410156 1555.050781 C 1888.230469 1514.339844 1795.441406 1480.609375 1687.410156 1456.910156 C 1578.078125 1432.929688 1453.398438 1419.351562 1321 1419.351562 C 1188.410156 1419.351562 1063.570312 1432.96875 954.117188 1457.011719 C 846.339844 1480.691406 753.707031 1514.398438 683.597656 1555.078125 L 700.53125 1677.03125 C 732.800781 1645.738281 792.136719 1618.691406 870.8125 1597.929688 "/>
<path fill-rule="evenodd" fill="rgb(76.951599%, 61.131287%, 12.939453%)" fill-opacity="1" d="M 1321 1583.550781 C 1148.328125 1583.550781 992.324219 1601.941406 879.6875 1631.660156 C 866.503906 1635.140625 853.945312 1638.738281 842.0625 1642.445312 C 891.6875 1660.359375 955.105469 1675.535156 1028.308594 1686.917969 C 1120.871094 1701.308594 1229.140625 1709.566406 1345.128906 1709.566406 C 1452.730469 1709.566406 1553.789062 1702.429688 1641.890625 1689.867188 C 1712.03125 1679.863281 1773.910156 1666.460938 1824.25 1650.519531 C 1805.601562 1643.921875 1784.871094 1637.609375 1762.308594 1631.660156 C 1649.671875 1601.941406 1493.671875 1583.550781 1321 1583.550781 "/>
<path fill-rule="evenodd" fill="rgb(95.3125%, 75.193787%, 15.281677%)" fill-opacity="1" d="M 678.4375 1517.949219 C 750.070312 1478.550781 841.652344 1445.960938 946.742188 1422.871094 C 1058.570312 1398.300781 1185.941406 1384.390625 1321 1384.390625 C 1455.871094 1384.390625 1583.070312 1398.261719 1694.789062 1422.769531 C 1800.039062 1445.859375 1891.789062 1478.5 1963.558594 1517.988281 L 2025.351562 1073.011719 C 2026.578125 1064.128906 2034.300781 1057.738281 2043.058594 1057.96875 L 2044.820312 1057.949219 C 2080.359375 1057.949219 2112.53125 1043.550781 2135.820312 1020.261719 C 2159.101562 996.96875 2173.511719 964.800781 2173.511719 929.261719 C 2173.511719 893.730469 2159.101562 861.550781 2135.820312 838.269531 C 2112.53125 814.980469 2080.359375 800.578125 2044.820312 800.578125 C 2009.28125 800.578125 1977.109375 814.980469 1953.820312 838.269531 C 1930.539062 861.550781 1916.128906 893.730469 1916.128906 929.261719 C 1916.128906 947.660156 1919.941406 965.078125 1926.800781 980.78125 C 1933.980469 997.199219 1944.449219 1011.808594 1957.359375 1023.761719 C 1964.410156 1030.289062 1964.839844 1041.289062 1958.308594 1048.351562 L 1958.210938 1048.449219 L 1958.238281 1048.480469 L 1723.441406 1298.890625 C 1716.851562 1305.910156 1705.808594 1306.238281 1698.789062 1299.648438 C 1697.449219 1298.378906 1696.339844 1296.941406 1695.488281 1295.410156 L 1403.078125 789.011719 L 1371.050781 733.53125 L 1362.328125 717.898438 C 1359.351562 709.761719 1362.828125 700.511719 1370.691406 696.441406 C 1386.371094 689.898438 1400.480469 680.359375 1412.300781 668.53125 C 1462.730469 618.109375 1462.730469 536.339844 1412.300781 485.921875 C 1361.878906 435.5 1280.121094 435.5 1229.699219 485.921875 C 1179.269531 536.339844 1179.269531 618.109375 1229.699219 668.53125 C 1241.519531 680.359375 1255.640625 689.898438 1271.308594 696.441406 C 1279.039062 700.050781 1282.890625 710.230469 1279.429688 718.519531 L 1270.949219 733.53125 L 1238.921875 789.011719 L 946.347656 1295.691406 C 941.519531 1304.019531 930.847656 1306.859375 922.515625 1302.039062 C 920.890625 1301.089844 919.472656 1299.929688 918.28125 1298.601562 L 683.753906 1048.480469 C 677.15625 1041.46875 677.492188 1030.429688 684.507812 1023.828125 L 685.46875 1022.988281 C 697.996094 1011.179688 708.171875 996.851562 715.199219 980.769531 C 722.058594 965.078125 725.867188 947.660156 725.867188 929.261719 C 725.867188 893.730469 711.460938 861.550781 688.175781 838.269531 C 664.890625 814.980469 632.714844 800.578125 597.179688 800.578125 C 561.640625 800.578125 529.46875 814.980469 506.183594 838.269531 C 482.898438 861.550781 468.492188 893.730469 468.492188 929.261719 C 468.492188 964.800781 482.898438 996.96875 506.183594 1020.261719 C 529.46875 1043.550781 561.640625 1057.949219 597.179688 1057.949219 C 601.210938 1057.949219 596.945312 1058.03125 598.371094 1058 L 599.101562 1057.988281 C 608 1057.851562 615.445312 1064.410156 616.625 1073.019531 L 616.648438 1073.011719 Z M 1196.230469 1112.480469 C 1196.230469 1067.109375 1209.5 1025.738281 1230.929688 995.558594 C 1253.578125 963.671875 1285.398438 943.941406 1321 943.941406 C 1356.601562 943.941406 1388.421875 963.671875 1411.070312 995.558594 C 1432.5 1025.738281 1445.769531 1067.109375 1445.769531 1112.480469 C 1445.769531 1157.851562 1432.5 1199.210938 1411.070312 1229.398438 C 1388.421875 1261.289062 1356.601562 1281.019531 1321 1281.019531 C 1285.398438 1281.019531 1253.578125 1261.289062 1230.929688 1229.398438 C 1209.5 1199.210938 1196.230469 1157.851562 1196.230469 1112.480469 "/>
<path fill-rule="evenodd" fill="rgb(89.0625%, 54.101562%, 55.271912%)" fill-opacity="1" d="M 1231.191406 1112.480469 C 1231.191406 1150.53125 1241.949219 1184.699219 1259.339844 1209.191406 C 1275.519531 1231.96875 1297.351562 1246.058594 1321 1246.058594 C 1344.648438 1246.058594 1366.480469 1231.96875 1382.660156 1209.191406 C 1400.050781 1184.699219 1410.808594 1150.53125 1410.808594 1112.480469 C 1410.808594 1074.429688 1400.050781 1040.25 1382.660156 1015.769531 C 1366.480469 992.988281 1344.648438 978.898438 1321 978.898438 C 1297.351562 978.898438 1275.519531 992.988281 1259.339844 1015.769531 C 1241.949219 1040.25 1231.191406 1074.429688 1231.191406 1112.480469 "/>
<path fill-rule="evenodd" fill="rgb(78.514099%, 10.984802%, 13.330078%)" fill-opacity="1" d="M 1273.628906 1225.648438 C 1287.460938 1238.558594 1303.75 1246.058594 1321 1246.058594 C 1344.648438 1246.058594 1366.480469 1231.96875 1382.660156 1209.191406 C 1400.050781 1184.699219 1410.808594 1150.53125 1410.808594 1112.480469 C 1410.808594 1111.53125 1410.800781 1110.589844 1410.78125 1109.648438 C 1408.949219 1077.199219 1398.988281 1048.238281 1383.828125 1026.898438 C 1368.160156 1004.828125 1347 991.179688 1324.089844 991.179688 C 1301.179688 991.179688 1280.03125 1004.828125 1264.359375 1026.898438 C 1247.519531 1050.609375 1237.089844 1083.71875 1237.089844 1120.578125 C 1237.089844 1157.449219 1247.519531 1190.550781 1264.359375 1214.269531 C 1267.269531 1218.371094 1270.371094 1222.171875 1273.628906 1225.648438 "/>
<path fill-rule="evenodd" fill="rgb(95.3125%, 75.193787%, 15.281677%)" fill-opacity="1" d="M 1321 1849.828125 C 1148.328125 1849.828125 992.328125 1831.441406 879.691406 1801.71875 C 788.792969 1777.730469 727.625 1747.996094 712.023438 1716.6875 C 709.433594 1721.898438 708.097656 1727.148438 708.097656 1732.421875 C 708.097656 1769.410156 773.671875 1805.207031 879.691406 1833.183594 C 992.328125 1862.90625 1148.328125 1881.292969 1321 1881.292969 C 1493.671875 1881.292969 1649.671875 1862.90625 1762.308594 1833.183594 C 1868.328125 1805.207031 1933.898438 1769.410156 1933.898438 1732.421875 C 1933.898438 1727.148438 1932.570312 1721.898438 1929.96875 1716.6875 C 1914.378906 1747.996094 1853.210938 1777.730469 1762.308594 1801.71875 C 1649.671875 1831.441406 1493.671875 1849.828125 1321 1849.828125 "/>
<path fill-rule="evenodd" fill="rgb(76.951599%, 61.131287%, 12.939453%)" fill-opacity="1" d="M 610.003906 1046.53125 C 566.550781 1047.710938 525.226562 1025.519531 502.40625 987.601562 C 483.410156 956.03125 480.046875 918.25 491.789062 884.648438 C 495.832031 873.070312 501.667969 862 509.273438 851.839844 C 538.964844 812.199219 589.710938 794.488281 637.617188 807.058594 C 624.898438 802.851562 611.304688 800.578125 597.179688 800.578125 C 561.640625 800.578125 529.46875 814.980469 506.183594 838.269531 C 482.898438 861.550781 468.492188 893.730469 468.492188 929.261719 C 468.492188 964.800781 482.898438 996.96875 506.183594 1020.261719 C 529.46875 1043.550781 561.640625 1057.949219 597.179688 1057.949219 C 601.210938 1057.949219 596.945312 1058.03125 598.371094 1058 L 599.101562 1057.988281 C 613.3125 1057.71875 621.117188 1061.488281 622.507812 1069.289062 L 697.421875 1507.910156 C 700.582031 1506.300781 703.777344 1504.699219 707.007812 1503.121094 C 728.386719 1492.628906 751.253906 1482.691406 775.46875 1473.378906 L 630.6875 1043.121094 C 623.890625 1044.929688 616.960938 1046.070312 610.003906 1046.53125 "/>
<path fill-rule="evenodd" fill="rgb(98.4375%, 91.014099%, 68.943787%)" fill-opacity="1" d="M 671.628906 861.960938 C 679.757812 864.28125 685.386719 869.511719 684.207031 873.640625 C 683.027344 877.769531 675.480469 879.238281 667.355469 876.921875 C 659.230469 874.601562 653.601562 869.371094 654.78125 865.238281 C 655.960938 861.101562 663.503906 859.640625 671.628906 861.960938 Z M 643.050781 826.589844 C 652.292969 832.058594 657.613281 839.300781 655.871094 845.410156 C 653.386719 854.101562 637.507812 857.191406 620.398438 852.308594 C 603.296875 847.421875 591.4375 836.410156 593.925781 827.71875 C 595.328125 822.800781 601.019531 819.671875 608.796875 818.769531 C 607.976562 818.699219 607.148438 818.648438 606.324219 818.601562 C 558.394531 815.828125 513.398438 841.78125 491.789062 884.648438 C 495.832031 873.070312 501.667969 862 509.273438 851.839844 C 538.964844 812.199219 589.710938 794.488281 637.617188 807.058594 C 656.890625 813.429688 674.144531 824.238281 688.175781 838.269531 C 711.460938 861.550781 725.867188 893.730469 725.867188 929.261719 C 725.867188 947.660156 722.058594 965.078125 715.199219 980.769531 C 708.570312 995.941406 699.140625 1009.550781 687.578125 1020.960938 C 718.34375 987.910156 728.179688 940.171875 712.488281 897.398438 C 700.378906 864.371094 674.742188 838.921875 643.050781 826.589844 "/>
<path fill-rule="evenodd" fill="rgb(76.951599%, 61.131287%, 12.939453%)" fill-opacity="1" d="M 782.222656 1508.171875 C 753.890625 1519.28125 727.59375 1531.261719 703.585938 1544 L 723.179688 1658.71875 C 754.984375 1636.800781 800.855469 1617.460938 857.640625 1601.511719 C 765.132812 1625.980469 697.714844 1560.558594 782.222656 1508.171875 "/>
<path fill-rule="evenodd" fill="rgb(76.951599%, 61.131287%, 12.939453%)" fill-opacity="1" d="M 2032 1046.53125 C 2075.449219 1047.710938 2116.769531 1025.519531 2139.589844 987.601562 C 2158.589844 956.03125 2161.949219 918.25 2150.210938 884.648438 C 2146.171875 873.070312 2140.328125 862 2132.730469 851.839844 C 2103.039062 812.199219 2052.289062 794.488281 2004.378906 807.058594 C 2017.101562 802.851562 2030.699219 800.578125 2044.820312 800.578125 C 2080.359375 800.578125 2112.53125 814.980469 2135.820312 838.269531 C 2159.101562 861.550781 2173.511719 893.730469 2173.511719 929.261719 C 2173.511719 964.800781 2159.101562 996.96875 2135.820312 1020.261719 C 2112.53125 1043.550781 2080.359375 1057.949219 2044.820312 1057.949219 C 2040.789062 1057.949219 2045.050781 1058.03125 2043.628906 1058 L 2042.898438 1057.988281 C 2028.691406 1057.71875 2020.878906 1061.488281 2019.488281 1069.289062 L 1944.578125 1507.910156 C 1941.421875 1506.300781 1938.21875 1504.699219 1934.988281 1503.121094 C 1913.609375 1492.628906 1890.75 1482.691406 1866.53125 1473.378906 L 2011.308594 1043.121094 C 2018.109375 1044.929688 2025.039062 1046.070312 2032 1046.53125 "/>
<path fill-rule="evenodd" fill="rgb(98.4375%, 91.014099%, 68.943787%)" fill-opacity="1" d="M 1970.371094 861.960938 C 1962.238281 864.28125 1956.609375 869.511719 1957.789062 873.640625 C 1958.96875 877.769531 1966.519531 879.238281 1974.640625 876.921875 C 1982.769531 874.601562 1988.398438 869.371094 1987.21875 865.238281 C 1986.039062 861.101562 1978.488281 859.640625 1970.371094 861.960938 Z M 1998.949219 826.589844 C 1989.710938 832.058594 1984.378906 839.300781 1986.128906 845.410156 C 1988.609375 854.101562 2004.488281 857.191406 2021.601562 852.308594 C 2038.710938 847.421875 2050.558594 836.410156 2048.078125 827.71875 C 2046.671875 822.800781 2040.980469 819.671875 2033.199219 818.769531 C 2034.03125 818.699219 2034.851562 818.648438 2035.679688 818.601562 C 2083.601562 815.828125 2128.601562 841.78125 2150.210938 884.648438 C 2146.171875 873.070312 2140.328125 862 2132.730469 851.839844 C 2103.039062 812.199219 2052.289062 794.488281 2004.378906 807.058594 C 1985.109375 813.429688 1967.851562 824.238281 1953.820312 838.269531 C 1930.539062 861.550781 1916.128906 893.730469 1916.128906 929.261719 C 1916.128906 947.660156 1919.941406 965.078125 1926.800781 980.769531 C 1933.429688 995.941406 1942.859375 1009.550781 1954.421875 1020.960938 C 1923.660156 987.910156 1913.820312 940.171875 1929.511719 897.398438 C 1941.621094 864.371094 1967.261719 838.921875 1998.949219 826.589844 "/>
<path fill-rule="evenodd" fill="rgb(76.951599%, 61.131287%, 12.939453%)" fill-opacity="1" d="M 1859.78125 1508.171875 C 1888.109375 1519.28125 1914.410156 1531.261719 1938.410156 1544 L 1918.820312 1658.71875 C 1887.019531 1636.800781 1841.140625 1617.460938 1784.359375 1601.511719 C 1876.871094 1625.980469 1944.28125 1560.558594 1859.78125 1508.171875 "/>
<path fill-rule="nonzero" fill="rgb(98.4375%, 91.014099%, 68.943787%)" fill-opacity="1" d="M 870.859375 1531.460938 C 861.542969 1533.871094 852.035156 1528.28125 849.621094 1518.960938 C 847.207031 1509.648438 852.804688 1500.140625 862.117188 1497.730469 C 973.898438 1468.398438 1087.761719 1450.148438 1202.089844 1442.96875 C 1316.761719 1435.78125 1432.039062 1439.71875 1546.28125 1454.789062 C 1555.820312 1456.03125 1562.550781 1464.78125 1561.308594 1474.320312 C 1560.058594 1483.859375 1551.320312 1490.578125 1541.78125 1489.339844 C 1429.898438 1474.578125 1316.859375 1470.730469 1204.28125 1477.800781 C 1092.03125 1484.839844 980.363281 1502.730469 870.859375 1531.460938 Z M 1621.410156 1501.71875 C 1611.949219 1500.019531 1605.648438 1490.96875 1607.351562 1481.511719 C 1609.039062 1472.039062 1618.089844 1465.738281 1627.558594 1467.441406 C 1650.640625 1471.578125 1673.660156 1476.179688 1696.601562 1481.230469 C 1719.671875 1486.320312 1742.46875 1491.820312 1764.988281 1497.730469 C 1774.308594 1500.140625 1779.898438 1509.648438 1777.488281 1518.960938 C 1775.078125 1528.28125 1765.570312 1533.871094 1756.25 1531.460938 C 1733.761719 1525.558594 1711.359375 1520.148438 1689.089844 1515.238281 C 1666.589844 1510.28125 1644.03125 1505.769531 1621.410156 1501.71875 "/>
<path fill-rule="evenodd" fill="rgb(76.951599%, 61.131287%, 12.939453%)" fill-opacity="1" d="M 1033.371094 1281.789062 L 1294.269531 721.339844 C 1301.550781 705.691406 1301.28125 687.21875 1283.308594 680.921875 C 1245.269531 667.511719 1216.21875 636.320312 1205.53125 597.441406 C 1194.828125 558.550781 1203.859375 516.890625 1229.699219 485.921875 C 1179.269531 536.339844 1179.269531 618.109375 1229.699219 668.53125 C 1241.519531 680.359375 1255.640625 689.898438 1271.308594 696.441406 C 1279.039062 700.050781 1282.890625 710.230469 1279.429688 718.519531 L 1270.949219 733.53125 L 946.347656 1295.691406 C 943.386719 1300.800781 938.316406 1303.78125 932.972656 1304.300781 C 929.457031 1304.648438 925.804688 1303.941406 922.515625 1302.039062 C 969.246094 1348.050781 1008.078125 1336.128906 1033.371094 1281.789062 "/>
<path fill-rule="evenodd" fill="rgb(76.951599%, 61.131287%, 12.939453%)" fill-opacity="1" d="M 1608.628906 1281.789062 L 1347.730469 721.339844 C 1340.449219 705.691406 1340.71875 687.21875 1358.691406 680.921875 C 1396.730469 667.511719 1425.78125 636.320312 1436.46875 597.441406 C 1447.171875 558.550781 1438.140625 516.890625 1412.300781 485.921875 C 1462.730469 536.339844 1462.730469 618.109375 1412.300781 668.53125 C 1400.480469 680.359375 1386.359375 689.898438 1370.691406 696.441406 C 1362.960938 700.050781 1359.109375 710.230469 1362.570312 718.519531 L 1371.050781 733.53125 L 1695.648438 1295.691406 C 1698.609375 1300.800781 1703.679688 1303.78125 1709.03125 1304.300781 C 1712.539062 1304.648438 1716.199219 1303.941406 1719.480469 1302.039062 C 1672.75 1348.050781 1633.921875 1336.128906 1608.628906 1281.789062 "/>
<path fill-rule="evenodd" fill="rgb(98.4375%, 91.014099%, 68.943787%)" fill-opacity="1" d="M 882.832031 1289.621094 C 737.828125 1125.230469 665.328125 1043.039062 665.328125 1043.039062 C 789.523438 1215.238281 851.621094 1301.339844 851.621094 1301.339844 C 887.074219 1355.011719 931.210938 1374.671875 984.035156 1360.339844 C 955.394531 1364.808594 916.324219 1327.949219 882.832031 1289.621094 "/>
<path fill-rule="evenodd" fill="rgb(98.4375%, 91.014099%, 68.943787%)" fill-opacity="1" d="M 1759.171875 1289.621094 C 1904.171875 1125.230469 1976.671875 1043.039062 1976.671875 1043.039062 C 1852.480469 1215.238281 1790.378906 1301.339844 1790.378906 1301.339844 C 1754.929688 1355.011719 1710.789062 1374.671875 1657.960938 1360.339844 C 1686.601562 1364.808594 1725.679688 1327.949219 1759.171875 1289.621094 "/>
<path fill-rule="evenodd" fill="rgb(98.4375%, 91.014099%, 68.943787%)" fill-opacity="1" d="M 1229.699219 485.921875 C 1203.859375 516.890625 1194.828125 558.550781 1205.53125 597.441406 C 1206.28125 600.191406 1207.128906 602.910156 1208.070312 605.578125 C 1196.910156 558.839844 1215.699219 510.050781 1255.320312 482.871094 C 1294.949219 455.691406 1347.230469 455.738281 1386.808594 482.980469 C 1426.398438 510.230469 1445.101562 559.050781 1433.859375 605.769531 C 1434.828125 603.03125 1435.699219 600.261719 1436.46875 597.441406 C 1447.171875 558.550781 1438.140625 516.890625 1412.300781 485.921875 C 1361.878906 435.5 1280.121094 435.5 1229.699219 485.921875 "/>
<path fill-rule="evenodd" fill="rgb(98.4375%, 91.014099%, 68.943787%)" fill-opacity="1" d="M 1321.960938 459.128906 C 1341.519531 459.128906 1357.359375 466.589844 1357.359375 475.78125 C 1357.359375 484.980469 1341.519531 492.441406 1321.960938 492.441406 C 1302.410156 492.441406 1286.570312 484.980469 1286.570312 475.78125 C 1286.570312 466.589844 1302.410156 459.128906 1321.960938 459.128906 "/>
<path fill-rule="evenodd" fill="rgb(98.4375%, 91.014099%, 68.943787%)" fill-opacity="1" d="M 1323.601562 495.519531 C 1333.558594 495.519531 1341.628906 500.210938 1341.628906 506 C 1341.628906 511.789062 1333.558594 516.480469 1323.601562 516.480469 C 1313.648438 516.480469 1305.578125 511.789062 1305.578125 506 C 1305.578125 500.210938 1313.648438 495.519531 1323.601562 495.519531 "/>
<path fill-rule="evenodd" fill="rgb(98.4375%, 91.014099%, 68.943787%)" fill-opacity="1" d="M 1399.328125 965.660156 C 1378.859375 944.320312 1350.570312 932.25 1321 932.25 C 1291.429688 932.25 1263.128906 944.320312 1242.660156 965.660156 C 1250.691406 950.71875 1260.628906 936.660156 1272.46875 923.5 C 1319.109375 871.648438 1314.351562 800.488281 1321 729.679688 C 1327.648438 800.488281 1322.890625 871.648438 1369.53125 923.5 C 1381.371094 936.660156 1391.300781 950.71875 1399.328125 965.660156 "/>
<path fill-rule="evenodd" fill="rgb(98.4375%, 91.014099%, 68.943787%)" fill-opacity="1" d="M 1399.328125 1260.730469 C 1378.859375 1282.070312 1350.570312 1294.140625 1321 1294.140625 C 1291.429688 1294.140625 1263.128906 1282.070312 1242.660156 1260.730469 C 1252.699219 1295.660156 1284.648438 1319.730469 1321 1319.730469 C 1357.351562 1319.730469 1389.300781 1295.660156 1399.328125 1260.730469 "/>
<path fill-rule="evenodd" fill="rgb(85.9375%, 86.326599%, 86.326599%)" fill-opacity="1" d="M 1650.769531 2093.636719 C 1501.269531 2083.3125 1329.019531 2080.835938 1171.371094 2085.175781 C 1013.730469 2089.519531 870.6875 2100.675781 779.621094 2117.617188 C 688.558594 2134.5625 666.710938 2154.089844 705.003906 2171.957031 C 743.292969 2189.824219 841.726562 2206.039062 991.226562 2216.359375 C 1140.71875 2226.679688 1312.980469 2229.15625 1470.628906 2224.816406 C 1628.269531 2220.476562 1771.308594 2209.320312 1862.378906 2192.375 C 1953.441406 2175.429688 1975.289062 2155.90625 1937 2138.039062 C 1898.710938 2120.171875 1800.269531 2103.957031 1650.769531 2093.636719 "/>
<path fill-rule="evenodd" fill="rgb(58.789062%, 7.835388%, 9.790039%)" fill-opacity="1" d="M 1316.71875 1216.949219 C 1300.429688 1216.949219 1285.050781 1210.078125 1272 1198.269531 C 1268.910156 1195.078125 1265.988281 1191.589844 1263.238281 1187.839844 C 1248.121094 1167.199219 1238.480469 1138.78125 1237.570312 1107.011719 C 1237.261719 1111.46875 1237.089844 1116 1237.089844 1120.578125 C 1237.089844 1157.449219 1247.519531 1190.550781 1264.359375 1214.269531 C 1267.269531 1218.371094 1270.371094 1222.171875 1273.628906 1225.648438 C 1281.570312 1233.058594 1290.320312 1238.691406 1299.601562 1242.140625 C 1299.648438 1242.160156 1299.699219 1242.171875 1299.75 1242.191406 C 1313.761719 1247.328125 1328.398438 1247.308594 1342.398438 1242.140625 C 1357.671875 1236.460938 1371.511719 1224.890625 1382.660156 1209.191406 C 1389.738281 1199.21875 1395.480469 1188.019531 1399.890625 1176.050781 C 1405.160156 1161.738281 1408.519531 1146.320312 1409.980469 1130.601562 C 1409.988281 1130.460938 1410.011719 1130.320312 1410.019531 1130.171875 C 1410.539062 1124.390625 1410.808594 1118.480469 1410.808594 1112.480469 L 1410.78125 1109.648438 C 1408.949219 1077.199219 1398.988281 1048.238281 1383.828125 1026.898438 C 1382.328125 1024.78125 1380.78125 1022.75 1379.179688 1020.789062 C 1391.71875 1039.820312 1399.890625 1064.558594 1401.488281 1092.050781 L 1401.511719 1094.640625 C 1401.511719 1129.480469 1391.359375 1160.769531 1374.941406 1183.191406 C 1359.660156 1204.050781 1339.050781 1216.949219 1316.71875 1216.949219 "/>
<path fill-rule="evenodd" fill="rgb(100%, 100%, 100%)" fill-opacity="1" d="M 1267.539062 1049.960938 C 1263.941406 1048.710938 1259.199219 1052.929688 1256.960938 1059.390625 C 1254.71875 1065.839844 1255.820312 1072.089844 1259.421875 1073.339844 C 1263.011719 1074.589844 1267.75 1070.371094 1269.988281 1063.910156 C 1272.230469 1057.460938 1271.140625 1051.210938 1267.539062 1049.960938 Z M 1299.378906 1018.289062 C 1294.960938 1014 1285.148438 1016.949219 1277.460938 1024.871094 C 1269.761719 1032.789062 1267.109375 1042.691406 1271.53125 1046.980469 C 1275.941406 1051.261719 1285.761719 1048.320312 1293.449219 1040.398438 C 1301.140625 1032.46875 1303.789062 1022.570312 1299.378906 1018.289062 "/>
</svg>
